<mxfile host="app.diagrams.net" modified="2023-04-24T15:26:31.623Z" agent="Mozilla/5.0 (X11; Linux x86_64) AppleWebKit/537.36 (KHTML, like Gecko) Chrome/110.0.0.0 Safari/537.36 Edg/110.0.1587.69" version="21.2.1" etag="-8cQlFmvd3J1BZ72ahVO" type="github">
  <diagram name="Страница 1" id="qH6qcXPnKu3jjiIv5aa5">
    <mxGraphModel>
      <root>
        <mxCell id="0" />
        <mxCell id="1" parent="0" />
      </root>
    </mxGraphModel>
  </diagram>
</mxfile>
